<mxfile host="app.diagrams.net" modified="2024-03-07T11:22:56.089Z" agent="Mozilla/5.0 (Windows NT 10.0; Win64; x64) AppleWebKit/537.36 (KHTML, like Gecko) Chrome/122.0.0.0 Safari/537.36" etag="Y9ItFRjY1XGDybQlJSne" version="24.0.2" type="device">
  <diagram id="C5RBs43oDa-KdzZeNtuy" name="Page-1">
    <mxGraphModel dx="1100" dy="543" grid="1" gridSize="10" guides="1" tooltips="1" connect="1" arrows="1" fold="1" page="1" pageScale="1" pageWidth="827" pageHeight="1169" math="0" shadow="0">
      <root>
        <mxCell id="WIyWlLk6GJQsqaUBKTNV-0" />
        <mxCell id="WIyWlLk6GJQsqaUBKTNV-1" parent="WIyWlLk6GJQsqaUBKTNV-0" />
        <mxCell id="bklwgOd4aa9scbPEdoBd-22" style="edgeStyle=orthogonalEdgeStyle;rounded=0;orthogonalLoop=1;jettySize=auto;html=1;entryX=0.5;entryY=1;entryDx=0;entryDy=0;labelBackgroundColor=none;labelBorderColor=none;fillColor=#eeeeee;strokeColor=#36393d;" edge="1" parent="WIyWlLk6GJQsqaUBKTNV-1" source="bklwgOd4aa9scbPEdoBd-5" target="bklwgOd4aa9scbPEdoBd-14">
          <mxGeometry relative="1" as="geometry" />
        </mxCell>
        <mxCell id="bklwgOd4aa9scbPEdoBd-45" style="edgeStyle=orthogonalEdgeStyle;rounded=0;orthogonalLoop=1;jettySize=auto;html=1;labelBackgroundColor=none;labelBorderColor=none;fillColor=#eeeeee;strokeColor=#36393d;" edge="1" parent="WIyWlLk6GJQsqaUBKTNV-1" source="bklwgOd4aa9scbPEdoBd-5" target="bklwgOd4aa9scbPEdoBd-38">
          <mxGeometry relative="1" as="geometry">
            <Array as="points">
              <mxPoint x="120" y="530" />
              <mxPoint x="1240" y="530" />
              <mxPoint x="1240" y="329" />
            </Array>
          </mxGeometry>
        </mxCell>
        <mxCell id="bklwgOd4aa9scbPEdoBd-5" value="AdidasFabric" style="swimlane;fontStyle=1;align=center;verticalAlign=top;childLayout=stackLayout;horizontal=1;startSize=26;horizontalStack=0;resizeParent=1;resizeParentMax=0;resizeLast=0;collapsible=1;marginBottom=0;whiteSpace=wrap;html=1;labelBackgroundColor=none;labelBorderColor=none;fillColor=#eeeeee;strokeColor=#36393d;" vertex="1" parent="WIyWlLk6GJQsqaUBKTNV-1">
          <mxGeometry x="25.5" y="220" width="210" height="70" as="geometry" />
        </mxCell>
        <mxCell id="bklwgOd4aa9scbPEdoBd-8" value="+&amp;nbsp;criarTenisCorrida(): ITenisCorrida&amp;nbsp;&lt;div&gt;+ criarTenisSkate(): ITenisSkate&lt;/div&gt;" style="text;align=left;verticalAlign=top;spacingLeft=4;spacingRight=4;overflow=hidden;rotatable=0;points=[[0,0.5],[1,0.5]];portConstraint=eastwest;whiteSpace=wrap;html=1;labelBackgroundColor=none;labelBorderColor=none;fillColor=#eeeeee;strokeColor=#36393d;" vertex="1" parent="bklwgOd4aa9scbPEdoBd-5">
          <mxGeometry y="26" width="210" height="44" as="geometry" />
        </mxCell>
        <mxCell id="bklwgOd4aa9scbPEdoBd-14" value="«interface»&lt;br&gt;&lt;span style=&quot;font-weight: 700;&quot;&gt;IAbstractFactory&lt;/span&gt;" style="html=1;whiteSpace=wrap;labelBackgroundColor=none;labelBorderColor=none;fillColor=#eeeeee;strokeColor=#36393d;" vertex="1" parent="WIyWlLk6GJQsqaUBKTNV-1">
          <mxGeometry x="170" y="90" width="170" height="50" as="geometry" />
        </mxCell>
        <mxCell id="bklwgOd4aa9scbPEdoBd-23" style="edgeStyle=orthogonalEdgeStyle;rounded=0;orthogonalLoop=1;jettySize=auto;html=1;entryX=0.5;entryY=1;entryDx=0;entryDy=0;labelBackgroundColor=none;labelBorderColor=none;fillColor=#eeeeee;strokeColor=#36393d;" edge="1" parent="WIyWlLk6GJQsqaUBKTNV-1" source="bklwgOd4aa9scbPEdoBd-20" target="bklwgOd4aa9scbPEdoBd-14">
          <mxGeometry relative="1" as="geometry" />
        </mxCell>
        <mxCell id="bklwgOd4aa9scbPEdoBd-53" style="edgeStyle=orthogonalEdgeStyle;rounded=0;orthogonalLoop=1;jettySize=auto;html=1;labelBackgroundColor=none;labelBorderColor=none;fillColor=#eeeeee;strokeColor=#36393d;" edge="1" parent="WIyWlLk6GJQsqaUBKTNV-1" source="bklwgOd4aa9scbPEdoBd-20" target="bklwgOd4aa9scbPEdoBd-47">
          <mxGeometry relative="1" as="geometry">
            <Array as="points">
              <mxPoint x="380" y="440" />
            </Array>
          </mxGeometry>
        </mxCell>
        <mxCell id="bklwgOd4aa9scbPEdoBd-20" value="QixFabric" style="swimlane;fontStyle=1;align=center;verticalAlign=top;childLayout=stackLayout;horizontal=1;startSize=26;horizontalStack=0;resizeParent=1;resizeParentMax=0;resizeLast=0;collapsible=1;marginBottom=0;whiteSpace=wrap;html=1;labelBackgroundColor=none;labelBorderColor=none;fillColor=#eeeeee;strokeColor=#36393d;" vertex="1" parent="WIyWlLk6GJQsqaUBKTNV-1">
          <mxGeometry x="274.5" y="220" width="210" height="70" as="geometry" />
        </mxCell>
        <mxCell id="bklwgOd4aa9scbPEdoBd-21" value="+&amp;nbsp;criarTenisCorrida(): ITenisCorrida&amp;nbsp;&lt;div&gt;+ criarTenisSkate(): ITenisSkate&lt;/div&gt;" style="text;align=left;verticalAlign=top;spacingLeft=4;spacingRight=4;overflow=hidden;rotatable=0;points=[[0,0.5],[1,0.5]];portConstraint=eastwest;whiteSpace=wrap;html=1;labelBackgroundColor=none;labelBorderColor=none;fillColor=#eeeeee;strokeColor=#36393d;" vertex="1" parent="bklwgOd4aa9scbPEdoBd-20">
          <mxGeometry y="26" width="210" height="44" as="geometry" />
        </mxCell>
        <mxCell id="bklwgOd4aa9scbPEdoBd-24" value="«interface»&lt;br&gt;&lt;b&gt;ITenis&lt;/b&gt;" style="html=1;whiteSpace=wrap;labelBackgroundColor=none;labelBorderColor=none;fillColor=#eeeeee;strokeColor=#36393d;" vertex="1" parent="WIyWlLk6GJQsqaUBKTNV-1">
          <mxGeometry x="872" y="90" width="110" height="50" as="geometry" />
        </mxCell>
        <mxCell id="bklwgOd4aa9scbPEdoBd-31" style="edgeStyle=orthogonalEdgeStyle;rounded=0;orthogonalLoop=1;jettySize=auto;html=1;entryX=0.5;entryY=1;entryDx=0;entryDy=0;labelBackgroundColor=none;labelBorderColor=none;fillColor=#eeeeee;strokeColor=#36393d;" edge="1" parent="WIyWlLk6GJQsqaUBKTNV-1" source="bklwgOd4aa9scbPEdoBd-29" target="bklwgOd4aa9scbPEdoBd-24">
          <mxGeometry relative="1" as="geometry" />
        </mxCell>
        <mxCell id="bklwgOd4aa9scbPEdoBd-29" value="«interface»&lt;br&gt;&lt;b&gt;ITenisSkate&lt;/b&gt;" style="html=1;whiteSpace=wrap;labelBackgroundColor=none;labelBorderColor=none;fillColor=#eeeeee;strokeColor=#36393d;" vertex="1" parent="WIyWlLk6GJQsqaUBKTNV-1">
          <mxGeometry x="797" y="180" width="110" height="50" as="geometry" />
        </mxCell>
        <mxCell id="bklwgOd4aa9scbPEdoBd-32" style="edgeStyle=orthogonalEdgeStyle;rounded=0;orthogonalLoop=1;jettySize=auto;html=1;entryX=0.5;entryY=1;entryDx=0;entryDy=0;labelBackgroundColor=none;labelBorderColor=none;fillColor=#eeeeee;strokeColor=#36393d;" edge="1" parent="WIyWlLk6GJQsqaUBKTNV-1" source="bklwgOd4aa9scbPEdoBd-30" target="bklwgOd4aa9scbPEdoBd-24">
          <mxGeometry relative="1" as="geometry" />
        </mxCell>
        <mxCell id="bklwgOd4aa9scbPEdoBd-30" value="«interface»&lt;br&gt;&lt;b&gt;ITenisCorrida&lt;/b&gt;" style="html=1;whiteSpace=wrap;labelBackgroundColor=none;labelBorderColor=none;fillColor=#eeeeee;strokeColor=#36393d;" vertex="1" parent="WIyWlLk6GJQsqaUBKTNV-1">
          <mxGeometry x="947" y="180" width="110" height="50" as="geometry" />
        </mxCell>
        <mxCell id="bklwgOd4aa9scbPEdoBd-46" style="edgeStyle=orthogonalEdgeStyle;rounded=0;orthogonalLoop=1;jettySize=auto;html=1;labelBackgroundColor=none;labelBorderColor=none;fillColor=#eeeeee;strokeColor=#36393d;" edge="1" parent="WIyWlLk6GJQsqaUBKTNV-1" source="bklwgOd4aa9scbPEdoBd-33" target="bklwgOd4aa9scbPEdoBd-14">
          <mxGeometry relative="1" as="geometry">
            <Array as="points">
              <mxPoint x="255" y="70" />
            </Array>
          </mxGeometry>
        </mxCell>
        <mxCell id="bklwgOd4aa9scbPEdoBd-55" style="edgeStyle=orthogonalEdgeStyle;rounded=0;orthogonalLoop=1;jettySize=auto;html=1;labelBackgroundColor=none;labelBorderColor=none;fillColor=#eeeeee;strokeColor=#36393d;" edge="1" parent="WIyWlLk6GJQsqaUBKTNV-1" source="bklwgOd4aa9scbPEdoBd-33" target="bklwgOd4aa9scbPEdoBd-29">
          <mxGeometry relative="1" as="geometry" />
        </mxCell>
        <mxCell id="bklwgOd4aa9scbPEdoBd-56" style="edgeStyle=orthogonalEdgeStyle;rounded=0;orthogonalLoop=1;jettySize=auto;html=1;entryX=1;entryY=0.5;entryDx=0;entryDy=0;labelBackgroundColor=none;labelBorderColor=none;fillColor=#eeeeee;strokeColor=#36393d;" edge="1" parent="WIyWlLk6GJQsqaUBKTNV-1" source="bklwgOd4aa9scbPEdoBd-33" target="bklwgOd4aa9scbPEdoBd-30">
          <mxGeometry relative="1" as="geometry">
            <Array as="points">
              <mxPoint x="1077" y="60" />
              <mxPoint x="1077" y="205" />
            </Array>
          </mxGeometry>
        </mxCell>
        <mxCell id="bklwgOd4aa9scbPEdoBd-33" value="User&lt;div&gt;&lt;br&gt;&lt;/div&gt;" style="shape=umlActor;verticalLabelPosition=bottom;verticalAlign=top;html=1;labelBackgroundColor=none;labelBorderColor=none;fillColor=#eeeeee;strokeColor=#36393d;" vertex="1" parent="WIyWlLk6GJQsqaUBKTNV-1">
          <mxGeometry x="40" y="40" width="30" height="60" as="geometry" />
        </mxCell>
        <mxCell id="bklwgOd4aa9scbPEdoBd-41" style="edgeStyle=orthogonalEdgeStyle;rounded=0;orthogonalLoop=1;jettySize=auto;html=1;labelBackgroundColor=none;labelBorderColor=none;fillColor=#eeeeee;strokeColor=#36393d;" edge="1" parent="WIyWlLk6GJQsqaUBKTNV-1" source="bklwgOd4aa9scbPEdoBd-34" target="bklwgOd4aa9scbPEdoBd-29">
          <mxGeometry relative="1" as="geometry" />
        </mxCell>
        <mxCell id="bklwgOd4aa9scbPEdoBd-34" value="Bravada" style="swimlane;fontStyle=0;childLayout=stackLayout;horizontal=1;startSize=26;horizontalStack=0;resizeParent=1;resizeParentMax=0;resizeLast=0;collapsible=1;marginBottom=0;whiteSpace=wrap;html=1;labelBackgroundColor=none;labelBorderColor=none;fillColor=#eeeeee;strokeColor=#36393d;" vertex="1" parent="WIyWlLk6GJQsqaUBKTNV-1">
          <mxGeometry x="700" y="280" width="140" height="78" as="geometry" />
        </mxCell>
        <mxCell id="bklwgOd4aa9scbPEdoBd-35" value="+&amp;nbsp;exibirInfoProduto()" style="text;align=left;verticalAlign=top;spacingLeft=4;spacingRight=4;overflow=hidden;rotatable=0;points=[[0,0.5],[1,0.5]];portConstraint=eastwest;whiteSpace=wrap;html=1;labelBackgroundColor=none;labelBorderColor=none;fillColor=#eeeeee;strokeColor=#36393d;" vertex="1" parent="bklwgOd4aa9scbPEdoBd-34">
          <mxGeometry y="26" width="140" height="26" as="geometry" />
        </mxCell>
        <mxCell id="bklwgOd4aa9scbPEdoBd-36" value="+&amp;nbsp;exibirTiposDeShape()" style="text;align=left;verticalAlign=top;spacingLeft=4;spacingRight=4;overflow=hidden;rotatable=0;points=[[0,0.5],[1,0.5]];portConstraint=eastwest;whiteSpace=wrap;html=1;labelBackgroundColor=none;labelBorderColor=none;fillColor=#eeeeee;strokeColor=#36393d;" vertex="1" parent="bklwgOd4aa9scbPEdoBd-34">
          <mxGeometry y="52" width="140" height="26" as="geometry" />
        </mxCell>
        <mxCell id="bklwgOd4aa9scbPEdoBd-42" style="edgeStyle=orthogonalEdgeStyle;rounded=0;orthogonalLoop=1;jettySize=auto;html=1;labelBackgroundColor=none;labelBorderColor=none;fillColor=#eeeeee;strokeColor=#36393d;" edge="1" parent="WIyWlLk6GJQsqaUBKTNV-1" source="bklwgOd4aa9scbPEdoBd-38" target="bklwgOd4aa9scbPEdoBd-30">
          <mxGeometry relative="1" as="geometry" />
        </mxCell>
        <mxCell id="bklwgOd4aa9scbPEdoBd-38" value="Supernova" style="swimlane;fontStyle=0;childLayout=stackLayout;horizontal=1;startSize=26;horizontalStack=0;resizeParent=1;resizeParentMax=0;resizeLast=0;collapsible=1;marginBottom=0;whiteSpace=wrap;html=1;labelBackgroundColor=none;rounded=0;labelBorderColor=none;fillColor=#eeeeee;strokeColor=#36393d;" vertex="1" parent="WIyWlLk6GJQsqaUBKTNV-1">
          <mxGeometry x="940" y="290" width="260" height="78" as="geometry" />
        </mxCell>
        <mxCell id="bklwgOd4aa9scbPEdoBd-39" value="+&amp;nbsp;exibirInfoProduto()" style="text;align=left;verticalAlign=top;spacingLeft=4;spacingRight=4;overflow=hidden;rotatable=0;points=[[0,0.5],[1,0.5]];portConstraint=eastwest;whiteSpace=wrap;html=1;labelBackgroundColor=none;labelBorderColor=none;fillColor=#eeeeee;strokeColor=#36393d;" vertex="1" parent="bklwgOd4aa9scbPEdoBd-38">
          <mxGeometry y="26" width="260" height="26" as="geometry" />
        </mxCell>
        <mxCell id="bklwgOd4aa9scbPEdoBd-40" value="+ calcularEstimativaDeDuracaoPorTerreno()" style="text;align=left;verticalAlign=top;spacingLeft=4;spacingRight=4;overflow=hidden;rotatable=0;points=[[0,0.5],[1,0.5]];portConstraint=eastwest;whiteSpace=wrap;html=1;labelBackgroundColor=none;labelBorderColor=none;fillColor=#eeeeee;strokeColor=#36393d;" vertex="1" parent="bklwgOd4aa9scbPEdoBd-38">
          <mxGeometry y="52" width="260" height="26" as="geometry" />
        </mxCell>
        <mxCell id="bklwgOd4aa9scbPEdoBd-43" style="edgeStyle=orthogonalEdgeStyle;rounded=0;orthogonalLoop=1;jettySize=auto;html=1;entryX=0.493;entryY=1;entryDx=0;entryDy=0;entryPerimeter=0;labelBackgroundColor=none;labelBorderColor=none;fillColor=#eeeeee;strokeColor=#36393d;" edge="1" parent="WIyWlLk6GJQsqaUBKTNV-1" source="bklwgOd4aa9scbPEdoBd-5" target="bklwgOd4aa9scbPEdoBd-36">
          <mxGeometry relative="1" as="geometry" />
        </mxCell>
        <mxCell id="bklwgOd4aa9scbPEdoBd-47" value="QixAllanMesquita" style="swimlane;fontStyle=0;childLayout=stackLayout;horizontal=1;startSize=26;horizontalStack=0;resizeParent=1;resizeParentMax=0;resizeLast=0;collapsible=1;marginBottom=0;whiteSpace=wrap;html=1;labelBackgroundColor=none;labelBorderColor=none;fillColor=#eeeeee;strokeColor=#36393d;" vertex="1" parent="WIyWlLk6GJQsqaUBKTNV-1">
          <mxGeometry x="700" y="400" width="140" height="78" as="geometry" />
        </mxCell>
        <mxCell id="bklwgOd4aa9scbPEdoBd-48" value="+&amp;nbsp;exibirInfoProduto()" style="text;align=left;verticalAlign=top;spacingLeft=4;spacingRight=4;overflow=hidden;rotatable=0;points=[[0,0.5],[1,0.5]];portConstraint=eastwest;whiteSpace=wrap;html=1;labelBackgroundColor=none;labelBorderColor=none;fillColor=#eeeeee;strokeColor=#36393d;" vertex="1" parent="bklwgOd4aa9scbPEdoBd-47">
          <mxGeometry y="26" width="140" height="26" as="geometry" />
        </mxCell>
        <mxCell id="bklwgOd4aa9scbPEdoBd-49" value="+&amp;nbsp;exibirTiposDeShape()" style="text;align=left;verticalAlign=top;spacingLeft=4;spacingRight=4;overflow=hidden;rotatable=0;points=[[0,0.5],[1,0.5]];portConstraint=eastwest;whiteSpace=wrap;html=1;labelBackgroundColor=none;labelBorderColor=none;fillColor=#eeeeee;strokeColor=#36393d;" vertex="1" parent="bklwgOd4aa9scbPEdoBd-47">
          <mxGeometry y="52" width="140" height="26" as="geometry" />
        </mxCell>
        <mxCell id="bklwgOd4aa9scbPEdoBd-50" value="QixContent" style="swimlane;fontStyle=0;childLayout=stackLayout;horizontal=1;startSize=26;horizontalStack=0;resizeParent=1;resizeParentMax=0;resizeLast=0;collapsible=1;marginBottom=0;whiteSpace=wrap;html=1;labelBackgroundColor=none;labelBorderColor=none;fillColor=#eeeeee;strokeColor=#36393d;" vertex="1" parent="WIyWlLk6GJQsqaUBKTNV-1">
          <mxGeometry x="940" y="410" width="260" height="78" as="geometry" />
        </mxCell>
        <mxCell id="bklwgOd4aa9scbPEdoBd-51" value="+&amp;nbsp;exibirInfoProduto()" style="text;align=left;verticalAlign=top;spacingLeft=4;spacingRight=4;overflow=hidden;rotatable=0;points=[[0,0.5],[1,0.5]];portConstraint=eastwest;whiteSpace=wrap;html=1;labelBackgroundColor=none;labelBorderColor=none;fillColor=#eeeeee;strokeColor=#36393d;" vertex="1" parent="bklwgOd4aa9scbPEdoBd-50">
          <mxGeometry y="26" width="260" height="26" as="geometry" />
        </mxCell>
        <mxCell id="bklwgOd4aa9scbPEdoBd-52" value="+ calcularEstimativaDeDuracaoPorTerreno()" style="text;align=left;verticalAlign=top;spacingLeft=4;spacingRight=4;overflow=hidden;rotatable=0;points=[[0,0.5],[1,0.5]];portConstraint=eastwest;whiteSpace=wrap;html=1;labelBackgroundColor=none;labelBorderColor=none;fillColor=#eeeeee;strokeColor=#36393d;" vertex="1" parent="bklwgOd4aa9scbPEdoBd-50">
          <mxGeometry y="52" width="260" height="26" as="geometry" />
        </mxCell>
        <mxCell id="bklwgOd4aa9scbPEdoBd-54" style="edgeStyle=orthogonalEdgeStyle;rounded=0;orthogonalLoop=1;jettySize=auto;html=1;labelBackgroundColor=none;labelBorderColor=none;fillColor=#eeeeee;strokeColor=#36393d;" edge="1" parent="WIyWlLk6GJQsqaUBKTNV-1" source="bklwgOd4aa9scbPEdoBd-21" target="bklwgOd4aa9scbPEdoBd-50">
          <mxGeometry relative="1" as="geometry">
            <Array as="points">
              <mxPoint x="370" y="520" />
              <mxPoint x="1070" y="520" />
            </Array>
          </mxGeometry>
        </mxCell>
      </root>
    </mxGraphModel>
  </diagram>
</mxfile>
